<svg xmlns="http://www.w3.org/2000/svg" xmlns:xlink="http://www.w3.org/1999/xlink" contentStyleType="text/css" height="1344px" preserveAspectRatio="none" style="width:1802px;height:1344px;background:#FFFFFF;" version="1.1" viewBox="0 0 1802 1344" width="1802px" zoomAndPan="magnify"><title>Diagramme de s&#233;quence de la commande zoom</title><defs/><g><text fill="#000000" font-family="sans-serif" font-size="14" font-weight="bold" lengthAdjust="spacing" textLength="318.9922" x="740.948" y="30.1074">Diagramme de s&#233;quence de la commande zoom</text><rect fill="#FFFFFF" height="1086.6426" style="stroke:#181818;stroke-width:1.0;" width="10" x="235.041" y="156.5332"/><rect fill="#FFFFFF" height="1000.7695" style="stroke:#181818;stroke-width:1.0;" width="10" x="421.2544" y="242.4063"/><rect fill="#FFFFFF" height="938.1875" style="stroke:#181818;stroke-width:1.0;" width="10" x="755.5713" y="273.6973"/><rect fill="#FFFFFF" height="581.9473" style="stroke:#181818;stroke-width:1.0;" width="10" x="1118.0063" y="598.6465"/><rect fill="#FFFFFF" height="277.3281" style="stroke:#181818;stroke-width:1.0;" width="10" x="1399.5151" y="715.8105"/><rect fill="#FFFFFF" height="193.7461" style="stroke:#181818;stroke-width:1.0;" width="10" x="1404.5151" y="799.3926"/><rect fill="#FFFFFF" height="37.291" style="stroke:#181818;stroke-width:1.0;" width="10" x="1603.7095" y="933.8477"/><rect fill="#FFFFFF" height="31.291" style="stroke:#181818;stroke-width:1.0;" width="10" x="1728.8677" y="536.0645"/><rect fill="#FFFFFF" height="331.9102" style="stroke:#181818;stroke-width:1.0;" width="10" x="1728.8677" y="684.5195"/><rect fill="none" height="94.873" style="stroke:#000000;stroke-width:1.5;" width="369.9668" x="1348.998" y="891.2656"/><line style="stroke:#181818;stroke-width:0.5;stroke-dasharray:5.0,5.0;" x1="153" x2="153" y1="123.2422" y2="1261.1758"/><line style="stroke:#181818;stroke-width:0.5;stroke-dasharray:5.0,5.0;" x1="239.2412" x2="239.2412" y1="123.2422" y2="1261.1758"/><line style="stroke:#181818;stroke-width:0.5;stroke-dasharray:5.0,5.0;" x1="425.5098" x2="425.5098" y1="123.2422" y2="1261.1758"/><line style="stroke:#181818;stroke-width:0.5;stroke-dasharray:5.0,5.0;" x1="760.2749" x2="760.2749" y1="123.2422" y2="1261.1758"/><line style="stroke:#181818;stroke-width:0.5;stroke-dasharray:5.0,5.0;" x1="1122.1445" x2="1122.1445" y1="123.2422" y2="1261.1758"/><line style="stroke:#181818;stroke-width:0.5;stroke-dasharray:5.0,5.0;" x1="1403.998" x2="1403.998" y1="123.2422" y2="1261.1758"/><line style="stroke:#181818;stroke-width:0.5;stroke-dasharray:5.0,5.0;" x1="1608.5718" x2="1608.5718" y1="123.2422" y2="1261.1758"/><line style="stroke:#181818;stroke-width:0.5;stroke-dasharray:5.0,5.0;" x1="1733.8472" x2="1733.8472" y1="500.9629" y2="1261.1758"/><text fill="#000000" font-family="sans-serif" font-size="14" lengthAdjust="spacing" textLength="62.2412" x="119" y="119.7285">Utilisateur</text><ellipse cx="153.1206" cy="53.1211" fill="#E2E2F0" rx="8" ry="8" style="stroke:#181818;stroke-width:0.5;"/><path d="M153.1206,61.1211 L153.1206,88.1211 M140.1206,69.1211 L166.1206,69.1211 M153.1206,88.1211 L140.1206,103.1211 M153.1206,88.1211 L166.1206,103.1211 " fill="none" style="stroke:#181818;stroke-width:0.5;"/><text fill="#000000" font-family="sans-serif" font-size="14" lengthAdjust="spacing" textLength="62.2412" x="119" y="1275.2832">Utilisateur</text><ellipse cx="153.1206" cy="1287.2969" fill="#E2E2F0" rx="8" ry="8" style="stroke:#181818;stroke-width:0.5;"/><path d="M153.1206,1295.2969 L153.1206,1322.2969 M140.1206,1303.2969 L166.1206,1303.2969 M153.1206,1322.2969 L140.1206,1337.2969 M153.1206,1322.2969 L166.1206,1337.2969 " fill="none" style="stroke:#181818;stroke-width:0.5;"/><rect fill="#E2E2F0" height="32.6211" rx="2.5" ry="2.5" style="stroke:#181818;stroke-width:0.5;" width="85.5996" x="197.2412" y="89.6211"/><text fill="#000000" font-family="sans-serif" font-size="14" lengthAdjust="spacing" textLength="71.5996" x="204.2412" y="111.7285">:StackPane</text><rect fill="#E2E2F0" height="32.6211" rx="2.5" ry="2.5" style="stroke:#181818;stroke-width:0.5;" width="85.5996" x="197.2412" y="1260.1758"/><text fill="#000000" font-family="sans-serif" font-size="14" lengthAdjust="spacing" textLength="71.5996" x="204.2412" y="1282.2832">:StackPane</text><rect fill="#E2E2F0" height="32.6211" rx="2.5" ry="2.5" style="stroke:#181818;stroke-width:0.5;" width="117.4893" x="367.5098" y="89.6211"/><text fill="#000000" font-family="sans-serif" font-size="14" lengthAdjust="spacing" textLength="103.4893" x="374.5098" y="111.7285">:ImageController</text><rect fill="#E2E2F0" height="32.6211" rx="2.5" ry="2.5" style="stroke:#181818;stroke-width:0.5;" width="117.4893" x="367.5098" y="1260.1758"/><text fill="#000000" font-family="sans-serif" font-size="14" lengthAdjust="spacing" textLength="103.4893" x="374.5098" y="1282.2832">:ImageController</text><rect fill="#E2E2F0" height="32.6211" rx="2.5" ry="2.5" style="stroke:#181818;stroke-width:0.5;" width="106.5928" x="707.2749" y="89.6211"/><text fill="#000000" font-family="sans-serif" font-size="14" lengthAdjust="spacing" textLength="92.5928" x="714.2749" y="111.7285">:ControleZoom</text><rect fill="#E2E2F0" height="32.6211" rx="2.5" ry="2.5" style="stroke:#181818;stroke-width:0.5;" width="106.5928" x="707.2749" y="1260.1758"/><text fill="#000000" font-family="sans-serif" font-size="14" lengthAdjust="spacing" textLength="92.5928" x="714.2749" y="1282.2832">:ControleZoom</text><rect fill="#E2E2F0" height="32.6211" rx="2.5" ry="2.5" style="stroke:#181818;stroke-width:0.5;" width="137.7236" x="1054.1445" y="89.6211"/><text fill="#000000" font-family="sans-serif" font-size="14" lengthAdjust="spacing" textLength="123.7236" x="1061.1445" y="111.7285">:CommandManager</text><rect fill="#E2E2F0" height="32.6211" rx="2.5" ry="2.5" style="stroke:#181818;stroke-width:0.5;" width="137.7236" x="1054.1445" y="1260.1758"/><text fill="#000000" font-family="sans-serif" font-size="14" lengthAdjust="spacing" textLength="123.7236" x="1061.1445" y="1282.2832">:CommandManager</text><rect fill="#E2E2F0" height="32.6211" rx="2.5" ry="2.5" style="stroke:#181818;stroke-width:0.5;" width="91.0342" x="1358.998" y="89.6211"/><text fill="#000000" font-family="sans-serif" font-size="14" lengthAdjust="spacing" textLength="77.0342" x="1365.998" y="111.7285">:Perspective</text><rect fill="#E2E2F0" height="32.6211" rx="2.5" ry="2.5" style="stroke:#181818;stroke-width:0.5;" width="91.0342" x="1358.998" y="1260.1758"/><text fill="#000000" font-family="sans-serif" font-size="14" lengthAdjust="spacing" textLength="77.0342" x="1365.998" y="1282.2832">:Perspective</text><rect fill="#E2E2F0" height="32.6211" rx="2.5" ry="2.5" style="stroke:#181818;stroke-width:0.5;" width="104.2754" x="1556.5718" y="89.6211"/><text fill="#000000" font-family="sans-serif" font-size="14" lengthAdjust="spacing" textLength="90.2754" x="1563.5718" y="111.7285">:VuePrincipale</text><rect fill="#E2E2F0" height="32.6211" rx="2.5" ry="2.5" style="stroke:#181818;stroke-width:0.5;" width="104.2754" x="1556.5718" y="1260.1758"/><text fill="#000000" font-family="sans-serif" font-size="14" lengthAdjust="spacing" textLength="90.2754" x="1563.5718" y="1282.2832">:VuePrincipale</text><rect fill="#E2E2F0" height="32.6211" rx="2.5" ry="2.5" style="stroke:#181818;stroke-width:0.5;" width="126.041" x="1670.8472" y="1260.1758"/><text fill="#000000" font-family="sans-serif" font-size="14" lengthAdjust="spacing" textLength="112.041" x="1677.8472" y="1282.2832">:CommandeZoom</text><rect fill="#FFFFFF" height="1086.6426" style="stroke:#181818;stroke-width:1.0;" width="10" x="235.041" y="156.5332"/><rect fill="#FFFFFF" height="1000.7695" style="stroke:#181818;stroke-width:1.0;" width="10" x="421.2544" y="242.4063"/><rect fill="#FFFFFF" height="938.1875" style="stroke:#181818;stroke-width:1.0;" width="10" x="755.5713" y="273.6973"/><rect fill="#FFFFFF" height="581.9473" style="stroke:#181818;stroke-width:1.0;" width="10" x="1118.0063" y="598.6465"/><rect fill="#FFFFFF" height="277.3281" style="stroke:#181818;stroke-width:1.0;" width="10" x="1399.5151" y="715.8105"/><rect fill="#FFFFFF" height="193.7461" style="stroke:#181818;stroke-width:1.0;" width="10" x="1404.5151" y="799.3926"/><rect fill="#FFFFFF" height="37.291" style="stroke:#181818;stroke-width:1.0;" width="10" x="1603.7095" y="933.8477"/><rect fill="#FFFFFF" height="31.291" style="stroke:#181818;stroke-width:1.0;" width="10" x="1728.8677" y="536.0645"/><rect fill="#FFFFFF" height="331.9102" style="stroke:#181818;stroke-width:1.0;" width="10" x="1728.8677" y="684.5195"/><polygon fill="#181818" points="223.041,152.5332,233.041,156.5332,223.041,160.5332,227.041,156.5332" style="stroke:#181818;stroke-width:1.0;"/><line style="stroke:#181818;stroke-width:1.0;" x1="153.1206" x2="229.041" y1="156.5332" y2="156.5332"/><text fill="#000000" font-family="sans-serif" font-size="13" font-weight="bold" lengthAdjust="spacing" textLength="7.23" x="160.1206" y="151.2705">1</text><text fill="#000000" font-family="sans-serif" font-size="13" lengthAdjust="spacing" textLength="30.3354" x="171.3506" y="151.2705">scroll</text><path d="M5,169.5332 L5,213.5332 L230,213.5332 L230,179.5332 L220,169.5332 L5,169.5332 " fill="#FEFFDD" style="stroke:#181818;stroke-width:0.5;"/><path d="M220,169.5332 L220,179.5332 L230,179.5332 L220,169.5332 " fill="#FEFFDD" style="stroke:#181818;stroke-width:0.5;"/><text fill="#000000" font-family="sans-serif" font-size="13" lengthAdjust="spacing" textLength="162.1699" x="11" y="188.5615">L'utilisateur utilise la molette</text><text fill="#000000" font-family="sans-serif" font-size="13" lengthAdjust="spacing" textLength="204.4897" x="11" y="205.8525">de la souris pour zoomer/d&#233;zoomer</text><polygon fill="#181818" points="409.2544,238.4063,419.2544,242.4063,409.2544,246.4063,413.2544,242.4063" style="stroke:#181818;stroke-width:1.0;"/><line style="stroke:#181818;stroke-width:1.0;" x1="245.041" x2="415.2544" y1="242.4063" y2="242.4063"/><text fill="#000000" font-family="sans-serif" font-size="13" font-weight="bold" lengthAdjust="spacing" textLength="7.23" x="252.041" y="237.1436">2</text><text fill="#000000" font-family="sans-serif" font-size="13" lengthAdjust="spacing" textLength="145.9834" x="263.271" y="237.1436">&#233;v&#233;nement de d&#233;filement</text><polygon fill="#181818" points="743.5713,269.6973,753.5713,273.6973,743.5713,277.6973,747.5713,273.6973" style="stroke:#181818;stroke-width:1.0;"/><line style="stroke:#181818;stroke-width:1.0;" x1="431.2544" x2="749.5713" y1="273.6973" y2="273.6973"/><text fill="#000000" font-family="sans-serif" font-size="13" font-weight="bold" lengthAdjust="spacing" textLength="7.23" x="438.2544" y="268.4346">3</text><text fill="#000000" font-family="sans-serif" font-size="13" lengthAdjust="spacing" textLength="294.0869" x="449.4844" y="268.4346">gererEvenement(event, TypeEvenement.SCROLL)</text><path d="M770,286.6973 L770,330.6973 L979,330.6973 L979,296.6973 L969,286.6973 L770,286.6973 " fill="#FEFFDD" style="stroke:#181818;stroke-width:0.5;"/><path d="M969,286.6973 L969,296.6973 L979,296.6973 L969,286.6973 " fill="#FEFFDD" style="stroke:#181818;stroke-width:0.5;"/><text fill="#000000" font-family="sans-serif" font-size="13" lengthAdjust="spacing" textLength="188.9126" x="776" y="305.7256">Le contr&#244;le v&#233;rifie si l'&#233;v&#233;nement</text><text fill="#000000" font-family="sans-serif" font-size="13" lengthAdjust="spacing" textLength="132.9644" x="776" y="323.0166">est bien un ScrollEvent</text><line style="stroke:#181818;stroke-width:1.0;" x1="765.5713" x2="807.5713" y1="359.5703" y2="359.5703"/><line style="stroke:#181818;stroke-width:1.0;" x1="807.5713" x2="807.5713" y1="359.5703" y2="372.5703"/><line style="stroke:#181818;stroke-width:1.0;" x1="766.5713" x2="807.5713" y1="372.5703" y2="372.5703"/><polygon fill="#181818" points="776.5713,368.5703,766.5713,372.5703,776.5713,376.5703,772.5713,372.5703" style="stroke:#181818;stroke-width:1.0;"/><text fill="#000000" font-family="sans-serif" font-size="13" font-weight="bold" lengthAdjust="spacing" textLength="7.23" x="772.5713" y="354.3076">4</text><text fill="#000000" font-family="sans-serif" font-size="13" lengthAdjust="spacing" textLength="182.8062" x="783.8013" y="354.3076">if (event instanceof ScrollEvent)</text><line style="stroke:#181818;stroke-width:1.0;" x1="765.5713" x2="807.5713" y1="403.8613" y2="403.8613"/><line style="stroke:#181818;stroke-width:1.0;" x1="807.5713" x2="807.5713" y1="403.8613" y2="416.8613"/><line style="stroke:#181818;stroke-width:1.0;" x1="766.5713" x2="807.5713" y1="416.8613" y2="416.8613"/><polygon fill="#181818" points="776.5713,412.8613,766.5713,416.8613,776.5713,420.8613,772.5713,416.8613" style="stroke:#181818;stroke-width:1.0;"/><text fill="#000000" font-family="sans-serif" font-size="13" font-weight="bold" lengthAdjust="spacing" textLength="7.23" x="772.5713" y="398.5986">5</text><text fill="#000000" font-family="sans-serif" font-size="13" lengthAdjust="spacing" textLength="301.666" x="783.8013" y="398.5986">facteurZoomInitial = perspective.getFacteurEchelle()</text><line style="stroke:#181818;stroke-width:1.0;" x1="765.5713" x2="807.5713" y1="448.1523" y2="448.1523"/><line style="stroke:#181818;stroke-width:1.0;" x1="807.5713" x2="807.5713" y1="448.1523" y2="461.1523"/><line style="stroke:#181818;stroke-width:1.0;" x1="766.5713" x2="807.5713" y1="461.1523" y2="461.1523"/><polygon fill="#181818" points="776.5713,457.1523,766.5713,461.1523,776.5713,465.1523,772.5713,461.1523" style="stroke:#181818;stroke-width:1.0;"/><text fill="#000000" font-family="sans-serif" font-size="13" font-weight="bold" lengthAdjust="spacing" textLength="7.23" x="772.5713" y="442.8896">6</text><text fill="#000000" font-family="sans-serif" font-size="13" lengthAdjust="spacing" textLength="317.2051" x="783.8013" y="442.8896">facteurZoomFinal = facteurZoomInitial + (deltaY * 0.01)</text><polygon fill="#181818" points="1658.8472,488.4434,1668.8472,492.4434,1658.8472,496.4434,1662.8472,492.4434" style="stroke:#181818;stroke-width:1.0;"/><line style="stroke:#181818;stroke-width:1.0;" x1="765.5713" x2="1664.8472" y1="492.4434" y2="492.4434"/><text fill="#000000" font-family="sans-serif" font-size="13" font-weight="bold" lengthAdjust="spacing" textLength="7.23" x="772.5713" y="487.1807">7</text><text fill="#000000" font-family="sans-serif" font-size="13" lengthAdjust="spacing" textLength="311.397" x="783.8013" y="487.1807">new CommandeZoom(perspective, facteurZoomFinal)</text><rect fill="#E2E2F0" height="32.6211" rx="2.5" ry="2.5" style="stroke:#181818;stroke-width:0.5;" width="126.041" x="1670.8472" y="469.1523"/><text fill="#000000" font-family="sans-serif" font-size="14" lengthAdjust="spacing" textLength="112.041" x="1677.8472" y="491.2598">:CommandeZoom</text><polygon fill="#181818" points="1716.8677,532.0645,1726.8677,536.0645,1716.8677,540.0645,1720.8677,536.0645" style="stroke:#181818;stroke-width:1.0;"/><line style="stroke:#181818;stroke-width:1.0;" x1="765.5713" x2="1722.8677" y1="536.0645" y2="536.0645"/><text fill="#000000" font-family="sans-serif" font-size="13" font-weight="bold" lengthAdjust="spacing" textLength="7.23" x="772.5713" y="530.8018">8</text><text fill="#000000" font-family="sans-serif" font-size="13" lengthAdjust="spacing" textLength="203.7407" x="783.8013" y="530.8018">setFacteurInitial(facteurZoomInitial)</text><polygon fill="#181818" points="776.5713,563.3555,766.5713,567.3555,776.5713,571.3555,772.5713,567.3555" style="stroke:#181818;stroke-width:1.0;"/><line style="stroke:#181818;stroke-width:1.0;stroke-dasharray:2.0,2.0;" x1="770.5713" x2="1732.8677" y1="567.3555" y2="567.3555"/><text fill="#000000" font-family="sans-serif" font-size="13" font-weight="bold" lengthAdjust="spacing" textLength="7.23" x="782.5713" y="562.0928">9</text><text fill="#000000" font-family="sans-serif" font-size="13" lengthAdjust="spacing" textLength="3.6118" x="793.8013" y="562.0928">&#160;</text><polygon fill="#181818" points="1106.0063,594.6465,1116.0063,598.6465,1106.0063,602.6465,1110.0063,598.6465" style="stroke:#181818;stroke-width:1.0;"/><line style="stroke:#181818;stroke-width:1.0;" x1="765.5713" x2="1112.0063" y1="598.6465" y2="598.6465"/><text fill="#000000" font-family="sans-serif" font-size="13" font-weight="bold" lengthAdjust="spacing" textLength="14.46" x="772.5713" y="593.3838">10</text><text fill="#000000" font-family="sans-serif" font-size="13" lengthAdjust="spacing" textLength="211.6943" x="791.0313" y="593.3838">executeCommand(commandeZoom)</text><path d="M831,611.6465 L831,655.6465 L1112,655.6465 L1112,621.6465 L1102,611.6465 L831,611.6465 " fill="#FEFFDD" style="stroke:#181818;stroke-width:0.5;"/><path d="M1102,611.6465 L1102,621.6465 L1112,621.6465 L1102,611.6465 " fill="#FEFFDD" style="stroke:#181818;stroke-width:0.5;"/><text fill="#000000" font-family="sans-serif" font-size="13" lengthAdjust="spacing" textLength="260.1396" x="837" y="630.6748">Le CommandManager ex&#233;cute la commande</text><text fill="#000000" font-family="sans-serif" font-size="13" lengthAdjust="spacing" textLength="162.9063" x="837" y="647.9658">et la stocke dans l'historique</text><polygon fill="#181818" points="1716.8677,680.5195,1726.8677,684.5195,1716.8677,688.5195,1720.8677,684.5195" style="stroke:#181818;stroke-width:1.0;"/><line style="stroke:#181818;stroke-width:1.0;" x1="1128.0063" x2="1722.8677" y1="684.5195" y2="684.5195"/><text fill="#000000" font-family="sans-serif" font-size="13" font-weight="bold" lengthAdjust="spacing" textLength="14.46" x="1135.0063" y="679.2568">11</text><text fill="#000000" font-family="sans-serif" font-size="13" lengthAdjust="spacing" textLength="54.1899" x="1153.4663" y="679.2568">execute()</text><polygon fill="#181818" points="1420.5151,711.8105,1410.5151,715.8105,1420.5151,719.8105,1416.5151,715.8105" style="stroke:#181818;stroke-width:1.0;"/><line style="stroke:#181818;stroke-width:1.0;" x1="1414.5151" x2="1727.8677" y1="715.8105" y2="715.8105"/><text fill="#000000" font-family="sans-serif" font-size="13" font-weight="bold" lengthAdjust="spacing" textLength="14.46" x="1426.5151" y="710.5479">12</text><text fill="#000000" font-family="sans-serif" font-size="13" lengthAdjust="spacing" textLength="213.8589" x="1444.9751" y="710.5479">setFacteurEchelle(facteurZoomFinal)</text><line style="stroke:#181818;stroke-width:1.0;" x1="1409.5151" x2="1451.5151" y1="747.1016" y2="747.1016"/><line style="stroke:#181818;stroke-width:1.0;" x1="1451.5151" x2="1451.5151" y1="747.1016" y2="760.1016"/><line style="stroke:#181818;stroke-width:1.0;" x1="1410.5151" x2="1451.5151" y1="760.1016" y2="760.1016"/><polygon fill="#181818" points="1420.5151,756.1016,1410.5151,760.1016,1420.5151,764.1016,1416.5151,760.1016" style="stroke:#181818;stroke-width:1.0;"/><text fill="#000000" font-family="sans-serif" font-size="13" font-weight="bold" lengthAdjust="spacing" textLength="14.46" x="1416.5151" y="741.8389">13</text><text fill="#000000" font-family="sans-serif" font-size="13" lengthAdjust="spacing" textLength="151.7344" x="1434.9751" y="741.8389">facteurEchelle.set(facteur)</text><line style="stroke:#181818;stroke-width:1.0;" x1="1409.5151" x2="1456.5151" y1="786.3926" y2="786.3926"/><line style="stroke:#181818;stroke-width:1.0;" x1="1456.5151" x2="1456.5151" y1="786.3926" y2="799.3926"/><line style="stroke:#181818;stroke-width:1.0;" x1="1415.5151" x2="1456.5151" y1="799.3926" y2="799.3926"/><polygon fill="#181818" points="1425.5151,795.3926,1415.5151,799.3926,1425.5151,803.3926,1421.5151,799.3926" style="stroke:#181818;stroke-width:1.0;"/><text fill="#000000" font-family="sans-serif" font-size="13" font-weight="bold" lengthAdjust="spacing" textLength="14.46" x="1421.5151" y="781.1299">14</text><text fill="#000000" font-family="sans-serif" font-size="13" lengthAdjust="spacing" textLength="99.6899" x="1439.9751" y="781.1299">notifyObservers()</text><path d="M1419,817.3926 L1419,878.3926 L1626,878.3926 L1626,827.3926 L1616,817.3926 L1419,817.3926 " fill="#FEFFDD" style="stroke:#181818;stroke-width:0.5;"/><path d="M1616,817.3926 L1616,827.3926 L1626,827.3926 L1616,817.3926 " fill="#FEFFDD" style="stroke:#181818;stroke-width:0.5;"/><text fill="#000000" font-family="sans-serif" font-size="13" lengthAdjust="spacing" textLength="186.418" x="1425" y="836.4209">Pattern Observer: la perspective</text><text fill="#000000" font-family="sans-serif" font-size="13" lengthAdjust="spacing" textLength="125.0171" x="1425" y="853.7119">notifie toutes les vues</text><text fill="#000000" font-family="sans-serif" font-size="13" lengthAdjust="spacing" textLength="83.4209" x="1425" y="871.0029">qui l'observent</text><path d="M1348.998,891.2656 L1421.4326,891.2656 L1421.4326,900.5566 L1411.4326,910.5566 L1348.998,910.5566 L1348.998,891.2656 " fill="#EEEEEE" style="stroke:#000000;stroke-width:1.5;"/><rect fill="none" height="94.873" style="stroke:#000000;stroke-width:1.5;" width="369.9668" x="1348.998" y="891.2656"/><text fill="#000000" font-family="sans-serif" font-size="13" font-weight="bold" lengthAdjust="spacing" textLength="27.4346" x="1363.998" y="906.2939">loop</text><text fill="#000000" font-family="sans-serif" font-size="11" font-weight="bold" lengthAdjust="spacing" textLength="122.8584" x="1436.4326" y="905.1357">[pour chaque observer]</text><polygon fill="#181818" points="1591.7095,929.8477,1601.7095,933.8477,1591.7095,937.8477,1595.7095,933.8477" style="stroke:#181818;stroke-width:1.0;"/><line style="stroke:#181818;stroke-width:1.0;" x1="1414.5151" x2="1597.7095" y1="933.8477" y2="933.8477"/><text fill="#000000" font-family="sans-serif" font-size="13" font-weight="bold" lengthAdjust="spacing" textLength="14.46" x="1421.5151" y="928.585">15</text><text fill="#000000" font-family="sans-serif" font-size="13" lengthAdjust="spacing" textLength="89.6099" x="1439.9751" y="928.585">update(subject)</text><line style="stroke:#181818;stroke-width:1.0;" x1="1613.7095" x2="1655.7095" y1="970.1387" y2="970.1387"/><line style="stroke:#181818;stroke-width:1.0;" x1="1655.7095" x2="1655.7095" y1="970.1387" y2="983.1387"/><line style="stroke:#181818;stroke-width:1.0;" x1="1608.7095" x2="1655.7095" y1="983.1387" y2="983.1387"/><polygon fill="#181818" points="1618.7095,979.1387,1608.7095,983.1387,1618.7095,987.1387,1614.7095,983.1387" style="stroke:#181818;stroke-width:1.0;"/><text fill="#000000" font-family="sans-serif" font-size="13" font-weight="bold" lengthAdjust="spacing" textLength="14.46" x="1620.7095" y="964.876">16</text><text fill="#000000" font-family="sans-serif" font-size="13" lengthAdjust="spacing" textLength="57.7954" x="1639.1694" y="964.876">dessiner()</text><polygon fill="#181818" points="1139.0063,1012.4297,1129.0063,1016.4297,1139.0063,1020.4297,1135.0063,1016.4297" style="stroke:#181818;stroke-width:1.0;"/><line style="stroke:#181818;stroke-width:1.0;stroke-dasharray:2.0,2.0;" x1="1133.0063" x2="1732.8677" y1="1016.4297" y2="1016.4297"/><text fill="#000000" font-family="sans-serif" font-size="13" font-weight="bold" lengthAdjust="spacing" textLength="14.46" x="1145.0063" y="1011.167">17</text><text fill="#000000" font-family="sans-serif" font-size="13" lengthAdjust="spacing" textLength="3.6118" x="1163.4663" y="1011.167">&#160;</text><line style="stroke:#181818;stroke-width:1.0;" x1="1128.0063" x2="1170.0063" y1="1047.7207" y2="1047.7207"/><line style="stroke:#181818;stroke-width:1.0;" x1="1170.0063" x2="1170.0063" y1="1047.7207" y2="1060.7207"/><line style="stroke:#181818;stroke-width:1.0;" x1="1129.0063" x2="1170.0063" y1="1060.7207" y2="1060.7207"/><polygon fill="#181818" points="1139.0063,1056.7207,1129.0063,1060.7207,1139.0063,1064.7207,1135.0063,1060.7207" style="stroke:#181818;stroke-width:1.0;"/><text fill="#000000" font-family="sans-serif" font-size="13" font-weight="bold" lengthAdjust="spacing" textLength="14.46" x="1135.0063" y="1042.458">18</text><text fill="#000000" font-family="sans-serif" font-size="13" lengthAdjust="spacing" textLength="229.0488" x="1153.4663" y="1042.458">commandesExecutees.push(command)</text><line style="stroke:#181818;stroke-width:1.0;" x1="1128.0063" x2="1170.0063" y1="1092.0117" y2="1092.0117"/><line style="stroke:#181818;stroke-width:1.0;" x1="1170.0063" x2="1170.0063" y1="1092.0117" y2="1105.0117"/><line style="stroke:#181818;stroke-width:1.0;" x1="1129.0063" x2="1170.0063" y1="1105.0117" y2="1105.0117"/><polygon fill="#181818" points="1139.0063,1101.0117,1129.0063,1105.0117,1139.0063,1109.0117,1135.0063,1105.0117" style="stroke:#181818;stroke-width:1.0;"/><text fill="#000000" font-family="sans-serif" font-size="13" font-weight="bold" lengthAdjust="spacing" textLength="14.46" x="1135.0063" y="1086.749">19</text><text fill="#000000" font-family="sans-serif" font-size="13" lengthAdjust="spacing" textLength="100.4263" x="1153.4663" y="1086.749">clearRedoStack()</text><line style="stroke:#181818;stroke-width:1.0;" x1="1128.0063" x2="1170.0063" y1="1136.3027" y2="1136.3027"/><line style="stroke:#181818;stroke-width:1.0;" x1="1170.0063" x2="1170.0063" y1="1136.3027" y2="1149.3027"/><line style="stroke:#181818;stroke-width:1.0;" x1="1129.0063" x2="1170.0063" y1="1149.3027" y2="1149.3027"/><polygon fill="#181818" points="1139.0063,1145.3027,1129.0063,1149.3027,1139.0063,1153.3027,1135.0063,1149.3027" style="stroke:#181818;stroke-width:1.0;"/><text fill="#000000" font-family="sans-serif" font-size="13" font-weight="bold" lengthAdjust="spacing" textLength="14.46" x="1135.0063" y="1131.04">20</text><text fill="#000000" font-family="sans-serif" font-size="13" lengthAdjust="spacing" textLength="107.6689" x="1153.4663" y="1131.04">updateProperties()</text><path d="M1283.1289,1121.5117 L1283.1289,1148.5117 L1585.1289,1148.5117 L1585.1289,1131.5117 L1575.1289,1121.5117 L1283.1289,1121.5117 " fill="#FEFFDD" style="stroke:#181818;stroke-width:0.5;"/><path d="M1575.1289,1121.5117 L1575.1289,1131.5117 L1585.1289,1131.5117 L1575.1289,1121.5117 " fill="#FEFFDD" style="stroke:#181818;stroke-width:0.5;"/><text fill="#000000" font-family="sans-serif" font-size="13" lengthAdjust="spacing" textLength="281.8169" x="1289.1289" y="1140.54">Met &#224; jour canUndoProperty et canRedoProperty</text><polygon fill="#181818" points="776.5713,1176.5938,766.5713,1180.5938,776.5713,1184.5938,772.5713,1180.5938" style="stroke:#181818;stroke-width:1.0;"/><line style="stroke:#181818;stroke-width:1.0;stroke-dasharray:2.0,2.0;" x1="770.5713" x2="1122.0063" y1="1180.5938" y2="1180.5938"/><text fill="#000000" font-family="sans-serif" font-size="13" font-weight="bold" lengthAdjust="spacing" textLength="14.46" x="782.5713" y="1175.3311">21</text><text fill="#000000" font-family="sans-serif" font-size="13" lengthAdjust="spacing" textLength="3.6118" x="801.0313" y="1175.3311">&#160;</text><polygon fill="#181818" points="442.2544,1207.8848,432.2544,1211.8848,442.2544,1215.8848,438.2544,1211.8848" style="stroke:#181818;stroke-width:1.0;"/><line style="stroke:#181818;stroke-width:1.0;stroke-dasharray:2.0,2.0;" x1="436.2544" x2="759.5713" y1="1211.8848" y2="1211.8848"/><text fill="#000000" font-family="sans-serif" font-size="13" font-weight="bold" lengthAdjust="spacing" textLength="14.46" x="448.2544" y="1206.6221">22</text><text fill="#000000" font-family="sans-serif" font-size="13" lengthAdjust="spacing" textLength="3.6118" x="466.7144" y="1206.6221">&#160;</text><polygon fill="#181818" points="251.041,1239.1758,241.041,1243.1758,251.041,1247.1758,247.041,1243.1758" style="stroke:#181818;stroke-width:1.0;"/><line style="stroke:#181818;stroke-width:1.0;stroke-dasharray:2.0,2.0;" x1="245.041" x2="425.2544" y1="1243.1758" y2="1243.1758"/><text fill="#000000" font-family="sans-serif" font-size="13" font-weight="bold" lengthAdjust="spacing" textLength="14.46" x="257.041" y="1237.9131">23</text><text fill="#000000" font-family="sans-serif" font-size="13" lengthAdjust="spacing" textLength="3.6118" x="275.501" y="1237.9131">&#160;</text><!--SRC=[bLRDJjmm4BxdAKPSoBQmfLUaSg4W8O50K93QcpUPtJKaTh2TRUdJzBhtli6-MCTsDd6oMP96GiJUcM- - -V7d66uoXA-SBHJBSuGKGM_MhoMAn2qo1edCSoRe_RUKUSHA8qMPpr154KkCLF1eUCOrCrYgg63Ay8GNJ1WuE7qmB7cvOm8FW6cmBns3gvmjy5mAesIMeN9cpR9ZNFs0FuX6Q8axTexl3HC4Nc7cwSsYYtU7IXUO6Bxo_6vaYbd7vgd4EyM5NMVUYdQYA4WPZizSPd0AEh6yRLNuYdxp2GCzGj8gmxa1EMzsxNDzM0PG_jqLFQUyZ6aCVIkqB1NNKD0_rmrKdzBDshyvKnIfYnQvbUD5_9gI4ilDUhLP2yoH4YHKyf_pp2sTJyq-wCEMH83JeDhCgSweBbReOMEaDtC4tzuAh3Ud3-VtjzVNangi6wZ9jIwPuekbgrclYQiVqdZIRvk_n8FoKdpEQO8vP8T1dZjkg0tCE0ee1JouhbcURRjsAJibm4u1-1nyri25DemE3x4Ea2TZGEPK4Xe3EzzNWXlEClW2HJEbqmMQIszpaIoH-X3_B-ub5mwr9zH7Y6d-3ViE7-1aUl9vqauyKMYRLH-lu1ZcwNuMUKe41Fw4q2qEaZhQeJU91k1qNOQAUxoRJhimpQnrkBe017eSLAnba6BBzprcf3143dzXKXgiqesJ8EtzdAmuTMcrH6EFJNK4sef753Phoo4KxrvND4vKZ4nUI0YOq7HibfpMYjCDi7jgUaz4LKARVTsXgWYTyHpiHDsDCo_6hLvlHtvtNFfWwZXUrM7FuyC4yUQjO5CAlmqu6Gz2HUBpjzkPHhMYIO_tkuwakQk8m_R-0g0xH0dOKZcr_GuEto20ouGKrKXg9uq7_QrAr8D-hwMLOEd3zWZmkB4AdqpAmbzyoPBHT485hWQvrEsXgvkQKnOf5JpMvUoPYZ0PTAzRz5GEryi-DamTBKMjkK0L3mSAf6Oe59Ki6W6pVqX66TN2s2y-xqdZZYXuSTogaRxm0e5wMfHwkLN9oIYC39cwnrIwhyjub8_l-PsIDFk6Oz-9R8xNAToGC6x-mBERDYOUHIehtpUhcRHbus-tzX8OTwTqIzlSAgqljwZFkuiUVg1LtwLHluz537QTvJy0]--></g></svg>