<svg xmlns="http://www.w3.org/2000/svg" xmlns:xlink="http://www.w3.org/1999/xlink" contentStyleType="text/css" height="1162px" preserveAspectRatio="none" style="width:1220px;height:1162px;background:#FFFFFF;" version="1.1" viewBox="0 0 1220 1162" width="1220px" zoomAndPan="magnify"><title>Diagramme de s&#233;quence de l'annulation d'une commande zoom</title><defs/><g><text fill="#000000" font-family="sans-serif" font-size="14" font-weight="bold" lengthAdjust="spacing" textLength="425.9678" x="398.7607" y="30.1074">Diagramme de s&#233;quence de l'annulation d'une commande zoom</text><rect fill="#FFFFFF" height="887.1484" style="stroke:#181818;stroke-width:1.0;" width="10" x="229.6226" y="173.8242"/><rect fill="#FFFFFF" height="769.9844" style="stroke:#181818;stroke-width:1.0;" width="10" x="384.3564" y="259.6973"/><rect fill="#FFFFFF" height="403.7832" style="stroke:#181818;stroke-width:1.0;" width="10" x="666.9507" y="451.4434"/><rect fill="#FFFFFF" height="277.3281" style="stroke:#181818;stroke-width:1.0;" width="10" x="902.2695" y="554.6074"/><rect fill="#FFFFFF" height="193.7461" style="stroke:#181818;stroke-width:1.0;" width="10" x="907.2695" y="638.1895"/><rect fill="#FFFFFF" height="37.291" style="stroke:#181818;stroke-width:1.0;" width="10" x="1099.2339" y="772.6445"/><rect fill="none" height="94.873" style="stroke:#000000;stroke-width:1.5;" width="362.7368" x="851.7524" y="730.0625"/><line style="stroke:#181818;stroke-width:0.5;stroke-dasharray:5.0,5.0;" x1="39" x2="39" y1="123.2422" y2="1078.9727"/><line style="stroke:#181818;stroke-width:0.5;stroke-dasharray:5.0,5.0;" x1="233.7505" x2="233.7505" y1="123.2422" y2="1078.9727"/><line style="stroke:#181818;stroke-width:0.5;stroke-dasharray:5.0,5.0;" x1="388.4946" x2="388.4946" y1="123.2422" y2="1078.9727"/><line style="stroke:#181818;stroke-width:0.5;stroke-dasharray:5.0,5.0;" x1="671.9302" x2="671.9302" y1="123.2422" y2="1078.9727"/><line style="stroke:#181818;stroke-width:0.5;stroke-dasharray:5.0,5.0;" x1="906.7524" x2="906.7524" y1="123.2422" y2="1078.9727"/><line style="stroke:#181818;stroke-width:0.5;stroke-dasharray:5.0,5.0;" x1="1104.0962" x2="1104.0962" y1="123.2422" y2="1078.9727"/><text fill="#000000" font-family="sans-serif" font-size="14" lengthAdjust="spacing" textLength="62.2412" x="5" y="119.7285">Utilisateur</text><ellipse cx="39.1206" cy="53.1211" fill="#E2E2F0" rx="8" ry="8" style="stroke:#181818;stroke-width:0.5;"/><path d="M39.1206,61.1211 L39.1206,88.1211 M26.1206,69.1211 L52.1206,69.1211 M39.1206,88.1211 L26.1206,103.1211 M39.1206,88.1211 L52.1206,103.1211 " fill="none" style="stroke:#181818;stroke-width:0.5;"/><text fill="#000000" font-family="sans-serif" font-size="14" lengthAdjust="spacing" textLength="62.2412" x="5" y="1093.0801">Utilisateur</text><ellipse cx="39.1206" cy="1105.0938" fill="#E2E2F0" rx="8" ry="8" style="stroke:#181818;stroke-width:0.5;"/><path d="M39.1206,1113.0938 L39.1206,1140.0938 M26.1206,1121.0938 L52.1206,1121.0938 M39.1206,1140.0938 L26.1206,1155.0938 M39.1206,1140.0938 L52.1206,1155.0938 " fill="none" style="stroke:#181818;stroke-width:0.5;"/><rect fill="#E2E2F0" height="32.6211" rx="2.5" ry="2.5" style="stroke:#181818;stroke-width:0.5;" width="151.7441" x="158.7505" y="89.6211"/><text fill="#000000" font-family="sans-serif" font-size="14" lengthAdjust="spacing" textLength="137.7441" x="165.7505" y="111.7285">:GestionnaireInterface</text><rect fill="#E2E2F0" height="32.6211" rx="2.5" ry="2.5" style="stroke:#181818;stroke-width:0.5;" width="151.7441" x="158.7505" y="1077.9727"/><text fill="#000000" font-family="sans-serif" font-size="14" lengthAdjust="spacing" textLength="137.7441" x="165.7505" y="1100.0801">:GestionnaireInterface</text><rect fill="#E2E2F0" height="32.6211" rx="2.5" ry="2.5" style="stroke:#181818;stroke-width:0.5;" width="137.7236" x="320.4946" y="89.6211"/><text fill="#000000" font-family="sans-serif" font-size="14" lengthAdjust="spacing" textLength="123.7236" x="327.4946" y="111.7285">:CommandManager</text><rect fill="#E2E2F0" height="32.6211" rx="2.5" ry="2.5" style="stroke:#181818;stroke-width:0.5;" width="137.7236" x="320.4946" y="1077.9727"/><text fill="#000000" font-family="sans-serif" font-size="14" lengthAdjust="spacing" textLength="123.7236" x="327.4946" y="1100.0801">:CommandManager</text><rect fill="#E2E2F0" height="32.6211" rx="2.5" ry="2.5" style="stroke:#181818;stroke-width:0.5;" width="126.041" x="608.9302" y="89.6211"/><text fill="#000000" font-family="sans-serif" font-size="14" lengthAdjust="spacing" textLength="112.041" x="615.9302" y="111.7285">:CommandeZoom</text><rect fill="#E2E2F0" height="32.6211" rx="2.5" ry="2.5" style="stroke:#181818;stroke-width:0.5;" width="126.041" x="608.9302" y="1077.9727"/><text fill="#000000" font-family="sans-serif" font-size="14" lengthAdjust="spacing" textLength="112.041" x="615.9302" y="1100.0801">:CommandeZoom</text><rect fill="#E2E2F0" height="32.6211" rx="2.5" ry="2.5" style="stroke:#181818;stroke-width:0.5;" width="91.0342" x="861.7524" y="89.6211"/><text fill="#000000" font-family="sans-serif" font-size="14" lengthAdjust="spacing" textLength="77.0342" x="868.7524" y="111.7285">:Perspective</text><rect fill="#E2E2F0" height="32.6211" rx="2.5" ry="2.5" style="stroke:#181818;stroke-width:0.5;" width="91.0342" x="861.7524" y="1077.9727"/><text fill="#000000" font-family="sans-serif" font-size="14" lengthAdjust="spacing" textLength="77.0342" x="868.7524" y="1100.0801">:Perspective</text><rect fill="#E2E2F0" height="32.6211" rx="2.5" ry="2.5" style="stroke:#181818;stroke-width:0.5;" width="104.2754" x="1052.0962" y="89.6211"/><text fill="#000000" font-family="sans-serif" font-size="14" lengthAdjust="spacing" textLength="90.2754" x="1059.0962" y="111.7285">:VuePrincipale</text><rect fill="#E2E2F0" height="32.6211" rx="2.5" ry="2.5" style="stroke:#181818;stroke-width:0.5;" width="104.2754" x="1052.0962" y="1077.9727"/><text fill="#000000" font-family="sans-serif" font-size="14" lengthAdjust="spacing" textLength="90.2754" x="1059.0962" y="1100.0801">:VuePrincipale</text><rect fill="#FFFFFF" height="887.1484" style="stroke:#181818;stroke-width:1.0;" width="10" x="229.6226" y="173.8242"/><rect fill="#FFFFFF" height="769.9844" style="stroke:#181818;stroke-width:1.0;" width="10" x="384.3564" y="259.6973"/><rect fill="#FFFFFF" height="403.7832" style="stroke:#181818;stroke-width:1.0;" width="10" x="666.9507" y="451.4434"/><rect fill="#FFFFFF" height="277.3281" style="stroke:#181818;stroke-width:1.0;" width="10" x="902.2695" y="554.6074"/><rect fill="#FFFFFF" height="193.7461" style="stroke:#181818;stroke-width:1.0;" width="10" x="907.2695" y="638.1895"/><rect fill="#FFFFFF" height="37.291" style="stroke:#181818;stroke-width:1.0;" width="10" x="1099.2339" y="772.6445"/><polygon fill="#181818" points="217.6226,169.8242,227.6226,173.8242,217.6226,177.8242,221.6226,173.8242" style="stroke:#181818;stroke-width:1.0;"/><line style="stroke:#181818;stroke-width:1.0;" x1="39.1206" x2="223.6226" y1="173.8242" y2="173.8242"/><text fill="#000000" font-family="sans-serif" font-size="13" font-weight="bold" lengthAdjust="spacing" textLength="7.23" x="46.1206" y="159.916">1</text><text fill="#000000" font-family="sans-serif" font-size="13" lengthAdjust="spacing" textLength="156.6602" x="57.3506" y="151.2705">clique sur bouton "Annuler"</text><text fill="#000000" font-family="sans-serif" font-size="13" lengthAdjust="spacing" textLength="147.0181" x="57.3506" y="168.5615">ou utilise raccourci Ctrl+Z</text><path d="M244,186.8242 L244,230.8242 L531,230.8242 L531,196.8242 L521,186.8242 L244,186.8242 " fill="#FEFFDD" style="stroke:#181818;stroke-width:0.5;"/><path d="M521,186.8242 L521,196.8242 L531,196.8242 L521,186.8242 " fill="#FEFFDD" style="stroke:#181818;stroke-width:0.5;"/><text fill="#000000" font-family="sans-serif" font-size="13" lengthAdjust="spacing" textLength="266.6587" x="250" y="205.8525">Le GestionnaireInterface g&#232;re les &#233;v&#233;nements</text><text fill="#000000" font-family="sans-serif" font-size="13" lengthAdjust="spacing" textLength="250.3008" x="250" y="223.1436">de l'interface utilisateur (menus, raccourcis)</text><polygon fill="#181818" points="372.3564,255.6973,382.3564,259.6973,372.3564,263.6973,376.3564,259.6973" style="stroke:#181818;stroke-width:1.0;"/><line style="stroke:#181818;stroke-width:1.0;" x1="239.6226" x2="378.3564" y1="259.6973" y2="259.6973"/><text fill="#000000" font-family="sans-serif" font-size="13" font-weight="bold" lengthAdjust="spacing" textLength="7.23" x="246.6226" y="254.4346">2</text><text fill="#000000" font-family="sans-serif" font-size="13" lengthAdjust="spacing" textLength="37.5781" x="257.8525" y="254.4346">undo()</text><line style="stroke:#181818;stroke-width:1.0;" x1="394.3564" x2="436.3564" y1="290.9883" y2="290.9883"/><line style="stroke:#181818;stroke-width:1.0;" x1="436.3564" x2="436.3564" y1="290.9883" y2="303.9883"/><line style="stroke:#181818;stroke-width:1.0;" x1="395.3564" x2="436.3564" y1="303.9883" y2="303.9883"/><polygon fill="#181818" points="405.3564,299.9883,395.3564,303.9883,405.3564,307.9883,401.3564,303.9883" style="stroke:#181818;stroke-width:1.0;"/><text fill="#000000" font-family="sans-serif" font-size="13" font-weight="bold" lengthAdjust="spacing" textLength="7.23" x="401.3564" y="285.7256">3</text><text fill="#000000" font-family="sans-serif" font-size="13" lengthAdjust="spacing" textLength="60.6963" x="412.5864" y="285.7256">canUndo()</text><path d="M399,316.9883 L399,377.9883 L612,377.9883 L612,326.9883 L602,316.9883 L399,316.9883 " fill="#FEFFDD" style="stroke:#181818;stroke-width:0.5;"/><path d="M602,316.9883 L602,326.9883 L612,326.9883 L602,316.9883 " fill="#FEFFDD" style="stroke:#181818;stroke-width:0.5;"/><text fill="#000000" font-family="sans-serif" font-size="13" lengthAdjust="spacing" textLength="180.6353" x="405" y="336.0166">Le CommandManager v&#233;rifie si</text><text fill="#000000" font-family="sans-serif" font-size="13" lengthAdjust="spacing" textLength="192.2197" x="405" y="353.3076">des commandes sont disponibles</text><text fill="#000000" font-family="sans-serif" font-size="13" lengthAdjust="spacing" textLength="94.999" x="405" y="370.5986">pour l'annulation</text><line style="stroke:#181818;stroke-width:1.0;" x1="394.3564" x2="436.3564" y1="407.1523" y2="407.1523"/><line style="stroke:#181818;stroke-width:1.0;" x1="436.3564" x2="436.3564" y1="407.1523" y2="420.1523"/><line style="stroke:#181818;stroke-width:1.0;" x1="395.3564" x2="436.3564" y1="420.1523" y2="420.1523"/><polygon fill="#181818" points="405.3564,416.1523,395.3564,420.1523,405.3564,424.1523,401.3564,420.1523" style="stroke:#181818;stroke-width:1.0;"/><text fill="#000000" font-family="sans-serif" font-size="13" font-weight="bold" lengthAdjust="spacing" textLength="7.23" x="401.3564" y="401.8896">4</text><text fill="#000000" font-family="sans-serif" font-size="13" lengthAdjust="spacing" textLength="237.3643" x="412.5864" y="401.8896">command = commandesExecutees.pop()</text><polygon fill="#181818" points="654.9507,447.4434,664.9507,451.4434,654.9507,455.4434,658.9507,451.4434" style="stroke:#181818;stroke-width:1.0;"/><line style="stroke:#181818;stroke-width:1.0;" x1="394.3564" x2="660.9507" y1="451.4434" y2="451.4434"/><text fill="#000000" font-family="sans-serif" font-size="13" font-weight="bold" lengthAdjust="spacing" textLength="7.23" x="401.3564" y="446.1807">5</text><text fill="#000000" font-family="sans-serif" font-size="13" lengthAdjust="spacing" textLength="37.5781" x="412.5864" y="446.1807">undo()</text><path d="M478,464.4434 L478,525.4434 L661,525.4434 L661,474.4434 L651,464.4434 L478,464.4434 " fill="#FEFFDD" style="stroke:#181818;stroke-width:0.5;"/><path d="M651,464.4434 L651,474.4434 L661,474.4434 L651,464.4434 " fill="#FEFFDD" style="stroke:#181818;stroke-width:0.5;"/><text fill="#000000" font-family="sans-serif" font-size="13" lengthAdjust="spacing" textLength="162.189" x="484" y="483.4717">La commande contient l'&#233;tat</text><text fill="#000000" font-family="sans-serif" font-size="13" lengthAdjust="spacing" textLength="141.6479" x="484" y="500.7627">pr&#233;c&#233;dent permettant de</text><text fill="#000000" font-family="sans-serif" font-size="13" lengthAdjust="spacing" textLength="135.8398" x="484" y="518.0537">restaurer la perspective</text><polygon fill="#181818" points="890.2695,550.6074,900.2695,554.6074,890.2695,558.6074,894.2695,554.6074" style="stroke:#181818;stroke-width:1.0;"/><line style="stroke:#181818;stroke-width:1.0;" x1="676.9507" x2="896.2695" y1="554.6074" y2="554.6074"/><text fill="#000000" font-family="sans-serif" font-size="13" font-weight="bold" lengthAdjust="spacing" textLength="7.23" x="683.9507" y="549.3447">6</text><text fill="#000000" font-family="sans-serif" font-size="13" lengthAdjust="spacing" textLength="195.0889" x="695.1807" y="549.3447">setFacteurEchelle(ancienFacteur)</text><line style="stroke:#181818;stroke-width:1.0;" x1="912.2695" x2="954.2695" y1="585.8984" y2="585.8984"/><line style="stroke:#181818;stroke-width:1.0;" x1="954.2695" x2="954.2695" y1="585.8984" y2="598.8984"/><line style="stroke:#181818;stroke-width:1.0;" x1="913.2695" x2="954.2695" y1="598.8984" y2="598.8984"/><polygon fill="#181818" points="923.2695,594.8984,913.2695,598.8984,923.2695,602.8984,919.2695,598.8984" style="stroke:#181818;stroke-width:1.0;"/><text fill="#000000" font-family="sans-serif" font-size="13" font-weight="bold" lengthAdjust="spacing" textLength="7.23" x="919.2695" y="580.6357">7</text><text fill="#000000" font-family="sans-serif" font-size="13" lengthAdjust="spacing" textLength="151.7344" x="930.4995" y="580.6357">facteurEchelle.set(facteur)</text><line style="stroke:#181818;stroke-width:1.0;" x1="912.2695" x2="959.2695" y1="625.1895" y2="625.1895"/><line style="stroke:#181818;stroke-width:1.0;" x1="959.2695" x2="959.2695" y1="625.1895" y2="638.1895"/><line style="stroke:#181818;stroke-width:1.0;" x1="918.2695" x2="959.2695" y1="638.1895" y2="638.1895"/><polygon fill="#181818" points="928.2695,634.1895,918.2695,638.1895,928.2695,642.1895,924.2695,638.1895" style="stroke:#181818;stroke-width:1.0;"/><text fill="#000000" font-family="sans-serif" font-size="13" font-weight="bold" lengthAdjust="spacing" textLength="7.23" x="924.2695" y="619.9268">8</text><text fill="#000000" font-family="sans-serif" font-size="13" lengthAdjust="spacing" textLength="99.6899" x="935.4995" y="619.9268">notifyObservers()</text><path d="M922,656.1895 L922,717.1895 L1129,717.1895 L1129,666.1895 L1119,656.1895 L922,656.1895 " fill="#FEFFDD" style="stroke:#181818;stroke-width:0.5;"/><path d="M1119,656.1895 L1119,666.1895 L1129,666.1895 L1119,656.1895 " fill="#FEFFDD" style="stroke:#181818;stroke-width:0.5;"/><text fill="#000000" font-family="sans-serif" font-size="13" lengthAdjust="spacing" textLength="186.418" x="928" y="675.2178">Pattern Observer: la perspective</text><text fill="#000000" font-family="sans-serif" font-size="13" lengthAdjust="spacing" textLength="125.0171" x="928" y="692.5088">notifie toutes les vues</text><text fill="#000000" font-family="sans-serif" font-size="13" lengthAdjust="spacing" textLength="83.4209" x="928" y="709.7998">qui l'observent</text><path d="M851.7524,730.0625 L924.187,730.0625 L924.187,739.3535 L914.187,749.3535 L851.7524,749.3535 L851.7524,730.0625 " fill="#EEEEEE" style="stroke:#000000;stroke-width:1.5;"/><rect fill="none" height="94.873" style="stroke:#000000;stroke-width:1.5;" width="362.7368" x="851.7524" y="730.0625"/><text fill="#000000" font-family="sans-serif" font-size="13" font-weight="bold" lengthAdjust="spacing" textLength="27.4346" x="866.7524" y="745.0908">loop</text><text fill="#000000" font-family="sans-serif" font-size="11" font-weight="bold" lengthAdjust="spacing" textLength="122.8584" x="939.187" y="743.9326">[pour chaque observer]</text><polygon fill="#181818" points="1087.2339,768.6445,1097.2339,772.6445,1087.2339,776.6445,1091.2339,772.6445" style="stroke:#181818;stroke-width:1.0;"/><line style="stroke:#181818;stroke-width:1.0;" x1="917.2695" x2="1093.2339" y1="772.6445" y2="772.6445"/><text fill="#000000" font-family="sans-serif" font-size="13" font-weight="bold" lengthAdjust="spacing" textLength="7.23" x="924.2695" y="767.3818">9</text><text fill="#000000" font-family="sans-serif" font-size="13" lengthAdjust="spacing" textLength="89.6099" x="935.4995" y="767.3818">update(subject)</text><line style="stroke:#181818;stroke-width:1.0;" x1="1109.2339" x2="1151.2339" y1="808.9355" y2="808.9355"/><line style="stroke:#181818;stroke-width:1.0;" x1="1151.2339" x2="1151.2339" y1="808.9355" y2="821.9355"/><line style="stroke:#181818;stroke-width:1.0;" x1="1104.2339" x2="1151.2339" y1="821.9355" y2="821.9355"/><polygon fill="#181818" points="1114.2339,817.9355,1104.2339,821.9355,1114.2339,825.9355,1110.2339,821.9355" style="stroke:#181818;stroke-width:1.0;"/><text fill="#000000" font-family="sans-serif" font-size="13" font-weight="bold" lengthAdjust="spacing" textLength="14.46" x="1116.2339" y="803.6729">10</text><text fill="#000000" font-family="sans-serif" font-size="13" lengthAdjust="spacing" textLength="57.7954" x="1134.6938" y="803.6729">dessiner()</text><polygon fill="#181818" points="405.3564,851.2266,395.3564,855.2266,405.3564,859.2266,401.3564,855.2266" style="stroke:#181818;stroke-width:1.0;"/><line style="stroke:#181818;stroke-width:1.0;stroke-dasharray:2.0,2.0;" x1="399.3564" x2="670.9507" y1="855.2266" y2="855.2266"/><text fill="#000000" font-family="sans-serif" font-size="13" font-weight="bold" lengthAdjust="spacing" textLength="14.46" x="411.3564" y="849.9639">11</text><text fill="#000000" font-family="sans-serif" font-size="13" lengthAdjust="spacing" textLength="3.6118" x="429.8164" y="849.9639">&#160;</text><line style="stroke:#181818;stroke-width:1.0;" x1="394.3564" x2="436.3564" y1="886.5176" y2="886.5176"/><line style="stroke:#181818;stroke-width:1.0;" x1="436.3564" x2="436.3564" y1="886.5176" y2="899.5176"/><line style="stroke:#181818;stroke-width:1.0;" x1="395.3564" x2="436.3564" y1="899.5176" y2="899.5176"/><polygon fill="#181818" points="405.3564,895.5176,395.3564,899.5176,405.3564,903.5176,401.3564,899.5176" style="stroke:#181818;stroke-width:1.0;"/><text fill="#000000" font-family="sans-serif" font-size="13" font-weight="bold" lengthAdjust="spacing" textLength="14.46" x="401.3564" y="881.2549">12</text><text fill="#000000" font-family="sans-serif" font-size="13" lengthAdjust="spacing" textLength="222.5552" x="419.8164" y="881.2549">commandesAnnulees.push(command)</text><line style="stroke:#181818;stroke-width:1.0;" x1="394.3564" x2="436.3564" y1="930.8086" y2="930.8086"/><line style="stroke:#181818;stroke-width:1.0;" x1="436.3564" x2="436.3564" y1="930.8086" y2="943.8086"/><line style="stroke:#181818;stroke-width:1.0;" x1="395.3564" x2="436.3564" y1="943.8086" y2="943.8086"/><polygon fill="#181818" points="405.3564,939.8086,395.3564,943.8086,405.3564,947.8086,401.3564,943.8086" style="stroke:#181818;stroke-width:1.0;"/><text fill="#000000" font-family="sans-serif" font-size="13" font-weight="bold" lengthAdjust="spacing" textLength="14.46" x="401.3564" y="925.5459">13</text><text fill="#000000" font-family="sans-serif" font-size="13" lengthAdjust="spacing" textLength="107.6689" x="419.8164" y="925.5459">updateProperties()</text><path d="M549.1289,916.0176 L549.1289,943.0176 L851.1289,943.0176 L851.1289,926.0176 L841.1289,916.0176 L549.1289,916.0176 " fill="#FEFFDD" style="stroke:#181818;stroke-width:0.5;"/><path d="M841.1289,916.0176 L841.1289,926.0176 L851.1289,926.0176 L841.1289,916.0176 " fill="#FEFFDD" style="stroke:#181818;stroke-width:0.5;"/><text fill="#000000" font-family="sans-serif" font-size="13" lengthAdjust="spacing" textLength="281.8169" x="555.1289" y="935.0459">Met &#224; jour canUndoProperty et canRedoProperty</text><path d="M108,956.8086 L108,1000.8086 L379,1000.8086 L379,966.8086 L369,956.8086 L108,956.8086 " fill="#FEFFDD" style="stroke:#181818;stroke-width:0.5;"/><path d="M369,956.8086 L369,966.8086 L379,966.8086 L369,956.8086 " fill="#FEFFDD" style="stroke:#181818;stroke-width:0.5;"/><text fill="#000000" font-family="sans-serif" font-size="13" lengthAdjust="spacing" textLength="250.0342" x="114" y="975.8369">Les commandes annul&#233;es sont conserv&#233;es</text><text fill="#000000" font-family="sans-serif" font-size="13" lengthAdjust="spacing" textLength="225.4307" x="114" y="993.1279">pour permettre le r&#233;tablissement (redo)</text><polygon fill="#181818" points="250.6226,1025.6816,240.6226,1029.6816,250.6226,1033.6816,246.6226,1029.6816" style="stroke:#181818;stroke-width:1.0;"/><line style="stroke:#181818;stroke-width:1.0;stroke-dasharray:2.0,2.0;" x1="244.6226" x2="388.3564" y1="1029.6816" y2="1029.6816"/><text fill="#000000" font-family="sans-serif" font-size="13" font-weight="bold" lengthAdjust="spacing" textLength="14.46" x="256.6226" y="1024.4189">14</text><text fill="#000000" font-family="sans-serif" font-size="13" lengthAdjust="spacing" textLength="3.6118" x="275.0825" y="1024.4189">&#160;</text><polygon fill="#181818" points="50.1206,1056.9727,40.1206,1060.9727,50.1206,1064.9727,46.1206,1060.9727" style="stroke:#181818;stroke-width:1.0;"/><line style="stroke:#181818;stroke-width:1.0;stroke-dasharray:2.0,2.0;" x1="44.1206" x2="233.6226" y1="1060.9727" y2="1060.9727"/><text fill="#000000" font-family="sans-serif" font-size="13" font-weight="bold" lengthAdjust="spacing" textLength="14.46" x="56.1206" y="1055.71">15</text><text fill="#000000" font-family="sans-serif" font-size="13" lengthAdjust="spacing" textLength="112.7217" x="74.5806" y="1055.71">affichage mis &#224; jour</text><!--SRC=[ZLLBRjim4Dth58Di8gDj3c2W1Oeq3GBKg570NGJTqDJ8PY2H2Zz6qzDqMPz35-kGb6Jzx8GxKM-6ynvd7fcpIhfoYpgnmXO8NmJRQLQM21c2gO_F3YKF7yKraz8Lp0eb8Rjs4e6hicII_lrHgamOjqh3nef266RHwQHYsWekAYOjN2tlqVXOoOJ61sbHvupZ5J03zvk74VOsPbunoNQe0-Ysp5OxFO_3HogWHOqWQzIcGcx58HwsKXaM8ynFXsijfFyk8efsagJ71JvyycN24dWXI1GmjBTLNZwu-ko5yMN-aig12r48cd6kdEO2RgqktZrwWSI1iWM-G4ig-j1YjxUWycxNhsy4cfCBTlK_JNU11khZeJvAB55QqyM5Un8TslK8f8HqvlsfBBC8OIYpK4WIlZn7eXh59hPEPYgDmAxyvYRQCnjiFuepkJa5JgcECZICXvSEH4-BN93KOe3CY7pRUGQCeXlCXAcK55lIPG2jYEYWSRk_GzRdQCHJuEFflBlVo9r5D3ULgdhy1j53tSRQ3IeCkXIOjx8CVWPTs6dCE74LTDz4gJvQPYVWIjT7NXypZwbGbsYjR_0C9qXDtSMS9faBvg7jY0o0Kv4Qgfvdc2DYQj1-9NhKOdTyZqM1AQD1GjbiBWQndGvn2iTLnPozvFaWymsTbUPpUMU3gNIHltpV6jG7OfXEGrufPzguvt5-hPcboPFG7hcy9ExeaD3fbWo5UjgFzy6DUhc_dfsW7b3n66bdSVENrwv2gIgE1zypxsTDCdtsp4vUiaRVu5L6mgN6RP-8tE9iM2UnTrIui7pQBZjDcX4ITNe-SOQlfYO9aWjXqyky-3FqVMSFoKoCdzyt-0cQ-61u4t5cdpRRYqkXKUwrLjHEv05crbgNi48BzLzu2XSRJRY9UG7wHLi_yBILd7EXgJdtBJVOQNripPTSoRUEtvYQR-D2uSq2xLrhIo-I2SyMf9gAMRp1a-FZcqpbRWiDpnQX-Y_s4bYU2shl7K8fJAjBqij0OVy1]--></g></svg>